<svg width="1024" height="1024" version="1.1" xmlns="http://www.w3.org/2000/svg" desc="Created with imagetracer.js version 1.2.6" ><path fill="rgb(0,0,0)" stroke="rgb(0,0,0)" stroke-width="1" opacity="0" d="M 0 0 L 1024 0 L 1024 1024 L 0 1024 L 0 0 Z M 443 400 L 442 401 L 371 401 L 357 407 L 344 401 L 334 401 L 333 402 L 177 402 L 167 409 Q 162 403 153 402 L 89 402 Q 74 406 63 414 Q 48 426 40 446 L 33 474 L 33 478 L 30 486 L 30 491 L 27 499 L 27 504 L 25 508 L 25 513 L 21 526 L 21 531 L 17 544 L 17 549 L 15 556 L 16 578 L 25 596 Q 35 608 54 613 Q 58 612 60 614 L 94 614 L 111 639 L 117 650 L 123 655 Q 131 657 135 653 L 176 613 L 310 613 L 321 606 L 337 613 L 618 613 L 619 612 L 656 612 L 664 608 Q 672 602 676 592 L 680 602 Q 685 609 694 612 L 992 612 L 996 610 L 1000 604 L 999 597 L 959 511 L 1011 420 Q 1013 410 1009 407 Q 1005 402 999 400 L 945 400 Q 936 402 933 409 Q 929 402 921 400 L 862 400 L 853 405 L 844 402 L 832 401 L 831 400 L 759 400 L 749 405 L 745 410 Q 740 404 733 401 L 687 401 L 680 404 L 671 413 L 671 414 L 656 406 L 634 401 L 463 401 L 462 400 L 443 400 Z " /><path fill="rgb(152,200,239)" stroke="rgb(152,200,239)" stroke-width="1" opacity="0.9921568627450981" d="M 759.5 401 L 829.5 401 L 830.5 402 L 842.5 403 L 851.5 407 L 860.5 401 L 922.5 401 L 930 407.5 L 931.5 410 L 935 407.5 L 937.5 404 L 942.5 401 L 1000.5 401 L 1009 407.5 Q 1011.7 410.8 1011 417.5 L 960 506.5 L 959 512.5 L 996 591.5 L 999 598.5 L 999 604.5 L 995.5 609 L 991.5 611 L 736.5 611 L 735.5 610 L 704 609.5 L 711 609 Q 712.3 606 708.5 607 L 708.5 606 L 712 604.5 L 708 602.5 L 716.5 602 L 717.5 601 L 987 600 L 987 597.5 L 971 565.5 L 946 509.5 L 1000 414.5 L 997.5 412 L 945.5 412 L 914.5 455 L 914 452.5 L 921 413.5 L 919.5 412 L 864.5 412 L 862 413 L 857.5 422 L 845.5 415 L 834.5 412 L 759.5 412 L 754 416.5 L 745 443.5 L 742.5 447 L 738 422.5 Q 736.5 416 731.5 413 L 729.5 412 L 689.5 412 L 682 418.5 L 671.5 435 Q 669.3 435.8 670 433.5 L 662.5 424 L 652.5 417 L 634.5 412 L 592 411 L 592 408 L 596 408 L 596 406.5 L 595 404 L 592 403.5 L 638.5 403 L 657.5 408 L 669.5 416 L 674 412.5 L 680.5 405 L 686.5 402 L 731.5 402 L 741 407.5 L 743 412 L 746 410.5 L 751.5 404 L 759.5 401 Z " /><path fill="rgb(152,200,239)" stroke="rgb(152,200,239)" stroke-width="1" opacity="0.9921568627450981" d="M 893.5 436 L 900 437 L 894 468.5 L 888 489.5 L 888 495 L 903.5 495 L 907 491.5 L 934 445.5 L 940.5 437 L 949.5 436 L 951.5 436 L 961.5 436 L 963 437.5 L 919.5 510 L 862.5 510 L 862 508.5 L 878 437 L 892.5 437 L 893.5 436 Z " /><path fill="rgb(152,200,239)" stroke="rgb(152,200,239)" stroke-width="1" opacity="0.9921568627450981" d="M 697.5 437 L 716.5 437 L 717 438.5 L 719 447.5 L 722 483.5 L 723 484.5 L 723 492.5 L 725 502.5 L 725 516.5 L 726 517.5 L 732 574 L 707.5 574 L 706 572.5 L 706 562.5 L 704 551 L 658.5 551 L 657 552.5 L 645.5 574 L 641.5 575 L 623 575 L 623 572.5 L 634 551.5 L 658 509.5 L 659 504.5 L 697.5 437 Z M 699 473 L 670 528 L 671 530 L 703 530 L 699 473 Z " /><path fill="rgb(152,200,239)" stroke="rgb(152,200,239)" stroke-width="1" opacity="0.9921568627450981" d="M 774 437 L 837.5 437 Q 845.1 438.8 849 444.5 L 854 456.5 L 854 469.5 L 847 498.5 L 837.5 510 L 835.5 511 L 757 511 L 774 437 Z M 793 458 L 791 460 L 783 495 L 821 495 L 823 494 L 827 489 L 831 471 Q 832 463 829 460 L 825 458 L 793 458 Z " /><path fill="rgb(152,200,239)" stroke="rgb(152,200,239)" stroke-width="1" opacity="0.9921568627450981" d="M 192.5 438 L 212.5 438 L 213 441.5 L 198 507 L 192.5 508 L 177.5 508 L 176 504.5 L 189 451.5 L 189 447.5 L 192.5 438 Z " /><path fill="rgb(152,200,239)" stroke="rgb(152,200,239)" stroke-width="1" opacity="0.9921568627450981" d="M 276.5 438 L 286 439 L 271 508 L 250.5 508 L 249 506.5 L 265 439 L 275.5 439 L 276.5 438 Z " /><path fill="rgb(152,200,239)" stroke="rgb(152,200,239)" stroke-width="1" opacity="0.9921568627450981" d="M 307.5 438 L 326.5 438 Q 327.5 438 327 442.5 L 312 508 L 291.5 508 L 290 506.5 L 305 441.5 L 307.5 438 Z " /><path fill="rgb(152,200,239)" stroke="rgb(152,200,239)" stroke-width="1" opacity="0.9921568627450981" d="M 374.5 438 L 405.5 438 L 410.5 439 Q 421.4 440.6 426 448.5 L 429 456.5 L 430 469.5 L 427.5 476 L 407 476 L 407 467.5 L 402.5 462 L 399.5 461 L 372.5 461 Q 366.8 462.3 364 466.5 L 355 500.5 L 355 504.5 L 352.5 508 L 332.5 508 Q 331.5 508 332 503.5 L 343 459.5 Q 347 450.5 354.5 445 L 364.5 440 L 374.5 438 Z " /><path fill="rgb(152,200,239)" stroke="rgb(152,200,239)" stroke-width="1" opacity="0.9921568627450981" d="M 454 438 L 473.5 438 Q 474.6 438.1 474 443.5 L 463 494.5 L 480.5 495 L 522.5 438 L 543.5 438 L 544 439.5 L 494.5 510 L 439.5 510 Q 438.4 509.9 439 504.5 L 454 438 Z " /><path fill="rgb(152,200,239)" stroke="rgb(152,200,239)" stroke-width="1" opacity="0.9921568627450981" d="M 573.5 438 L 633.5 438 L 641.5 440 L 651 446.5 L 656 456.5 L 657 471.5 Q 654.3 473.3 656 479.5 L 651 495.5 Q 647.5 504.5 640.5 510 Q 630.8 519.8 614.5 523 L 574 523 L 565 566.5 L 561.5 575 L 543.5 575 Q 542.4 574.9 543 569.5 L 556 514.5 L 556 508.5 L 561 490.5 L 566 464.5 L 572 443.5 L 572 439.5 L 573.5 438 Z M 588 460 L 584 482 L 580 495 L 582 497 L 590 497 L 591 496 L 622 496 L 626 494 L 630 488 L 633 475 Q 634 468 632 465 L 626 460 L 588 460 Z " /><path fill="rgb(152,200,239)" stroke="rgb(152,200,239)" stroke-width="1" opacity="0.9921568627450981" d="M 101.5 439 L 145.5 439 Q 155.2 441.3 161 447.5 Q 166.7 454.8 165 469.5 L 161 485.5 L 161 490.5 L 157 506.5 L 155.5 508 L 135.5 508 L 135 504.5 L 142 476.5 L 142 467.5 L 137.5 462 L 133.5 461 L 113.5 461 L 112.5 462 L 100.5 462 L 94 467.5 L 87 491.5 L 85 504.5 L 82.5 508 L 64.5 508 L 63 506.5 L 68 480.5 L 73 462.5 Q 76.9 452.4 84.5 446 Q 91.4 440.9 101.5 439 Z " /><path fill="rgb(152,200,239)" stroke="rgb(152,200,239)" stroke-width="1" opacity="0.9921568627450981" d="M 897.5 513 L 899.5 514 L 918.5 514 Q 920.2 511.3 922 515.5 L 949 574 L 927.5 574 L 927 572.5 L 903.5 523 L 882.5 523 L 881 524.5 L 871 574 L 849.5 574 Q 848.5 574 849 569.5 L 856 542.5 L 861 515.5 L 862.5 514 L 896.5 514 L 897.5 513 Z " /><path fill="rgb(152,200,239)" stroke="rgb(152,200,239)" stroke-width="1" opacity="0.9921568627450981" d="M 757.5 514 L 830 514.5 L 822 518.5 L 833 574 L 809.5 574 L 809 571.5 L 801 530.5 L 801 525.5 L 798.5 522 L 778.5 522 L 777 523.5 L 767 574 L 742.5 574 L 742 570.5 L 756 515.5 L 757.5 514 Z " /><path fill="rgb(152,200,239)" stroke="rgb(152,200,239)" stroke-width="1" opacity="0.9921568627450981" d="M 500.5 547 L 511 549 Q 517.4 560.1 521 574 L 497.5 574 L 497 572.5 Q 491.4 564.2 491 552 L 498.5 552 L 499 554 L 500.5 554 L 503 550 L 499 550 L 499 548.5 L 500.5 547 Z " /><path fill="rgb(152,200,239)" stroke="rgb(152,200,239)" stroke-width="1" opacity="0.9921568627450981" d="M 175.5 553 L 181 557 L 181 561 L 189 561 L 189 565 Q 194.6 563.1 193 568 Q 186.9 566.3 185 569.5 L 183.5 572 L 181 571 Q 182.3 567.3 176.5 569 L 175.5 570 L 171 565.5 Q 167.8 561 168 554 L 174.5 554 L 175.5 553 Z " /><path fill="rgb(152,200,239)" stroke="rgb(152,200,239)" stroke-width="1" opacity="0.9921568627450981" d="M 440.5 557 L 443 561 L 445.5 562 L 447 561.5 L 445 572.5 L 443.5 574 L 426.5 574 Q 425.5 574 426 569.5 L 428 563 L 432 563 L 432 561.5 L 440.5 557 Z " /><path fill="rgb(152,200,239)" stroke="rgb(152,200,239)" stroke-width="1" opacity="0.9921568627450981" d="M 137.5 573 L 147 587.5 L 132.5 602 L 131 602 L 120 578.5 L 122.5 575 L 134.5 574 Q 136 576.5 137.5 573 Z " /><path fill="rgb(152,200,239)" stroke="rgb(152,200,239)" stroke-width="1" opacity="0.9921568627450981" d="M 670.5 580 L 672 581.5 Q 668.9 583.2 670.5 585 L 667.5 587 L 668 585.5 L 670 582.5 Q 667.8 581.3 670.5 580 Z " /><path fill="rgb(152,200,239)" stroke="rgb(152,200,239)" stroke-width="1" opacity="0.9921568627450981" d="M 672 584 L 674 584.5 L 672 585.5 L 672 584 Z " /><path fill="rgb(152,200,239)" stroke="rgb(152,200,239)" stroke-width="1" opacity="0.9921568627450981" d="M 669.5 588 Q 673.5 587.5 674 590.5 Q 671.3 591.6 672 595 Q 668.2 596 667 593.5 L 669.5 588 Z " /><path fill="rgb(152,200,239)" stroke="rgb(152,200,239)" stroke-width="1" opacity="0.9921568627450981" d="M 665.5 592 L 666 594 L 664 593.5 L 665.5 592 Z " /><path fill="rgb(18,14,56)" stroke="rgb(18,14,56)" stroke-width="1" opacity="0.9882352941176471" d="M 370.5 401 L 375 401.5 L 366.5 403 L 366.5 402 L 370.5 401 Z " /><path fill="rgb(18,14,56)" stroke="rgb(18,14,56)" stroke-width="1" opacity="0.9882352941176471" d="M 468.5 401 L 472 401.5 L 468.5 402 L 468.5 401 Z " /><path fill="rgb(18,14,56)" stroke="rgb(18,14,56)" stroke-width="1" opacity="0.9882352941176471" d="M 473.5 401 L 543 401.5 L 473.5 402 L 473.5 401 Z " /><path fill="rgb(18,14,56)" stroke="rgb(18,14,56)" stroke-width="1" opacity="0.9882352941176471" d="M 628.5 401 L 634 401.5 L 628.5 402 L 628.5 401 Z " /><path fill="rgb(18,14,56)" stroke="rgb(18,14,56)" stroke-width="1" opacity="0.9882352941176471" d="M 88.5 402 L 109 402.5 L 90.5 403 L 77.5 407 Q 61.3 414.3 51 427.5 Q 42.8 437.3 39.5 452 L 39 448.5 Q 46.4 426.9 62.5 414 Q 73.5 406 88.5 402 Z " /><path fill="rgb(18,14,56)" stroke="rgb(18,14,56)" stroke-width="1" opacity="0.9882352941176471" d="M 112.5 402 L 118 402.5 L 112.5 403 L 112.5 402 Z " /><path fill="rgb(18,14,56)" stroke="rgb(18,14,56)" stroke-width="1" opacity="0.9882352941176471" d="M 149.5 402 L 153 402.5 L 149.5 403 L 149.5 402 Z " /><path fill="rgb(18,14,56)" stroke="rgb(18,14,56)" stroke-width="1" opacity="0.9882352941176471" d="M 176.5 402 L 179 402.5 L 172.5 405 L 172.5 404 L 176.5 402 Z " /><path fill="rgb(18,14,56)" stroke="rgb(18,14,56)" stroke-width="1" opacity="0.9882352941176471" d="M 638.5 402 L 641 402.5 L 638.5 403 L 638.5 402 Z " /><path fill="rgb(18,14,56)" stroke="rgb(18,14,56)" stroke-width="1" opacity="0.9882352941176471" d="M 154.5 403 L 157 403.5 L 154.5 404 L 154.5 403 Z " /><path fill="rgb(18,14,56)" stroke="rgb(18,14,56)" stroke-width="1" opacity="0.9882352941176471" d="M 158.5 404 L 163 406.5 L 161.5 406 Q 157.8 405.8 158.5 404 Z " /><path fill="rgb(18,14,56)" stroke="rgb(18,14,56)" stroke-width="1" opacity="0.9882352941176471" d="M 351.5 404 L 352.5 406 L 351.5 404 Z " /><path fill="rgb(18,14,56)" stroke="rgb(18,14,56)" stroke-width="1" opacity="0.9882352941176471" d="M 679.5 404 L 671.5 413 L 679.5 404 Z " /><path fill="rgb(18,14,56)" stroke="rgb(18,14,56)" stroke-width="1" opacity="0.9882352941176471" d="M 748.5 405 L 747.5 407 L 748.5 405 Z " /><path fill="rgb(18,14,56)" stroke="rgb(18,14,56)" stroke-width="1" opacity="0.9882352941176471" d="M 168.5 407 L 167.5 409 L 168.5 407 Z " /><path fill="rgb(18,14,56)" stroke="rgb(18,14,56)" stroke-width="1" opacity="0.9882352941176471" d="M 742.5 408 Q 744.3 411.1 746 409.5 L 743 411 L 742.5 408 Z " /><path fill="rgb(18,14,56)" stroke="rgb(18,14,56)" stroke-width="1" opacity="0.9882352941176471" d="M 779.5 412 L 829.5 412 L 846.5 416 L 856.5 422 L 859 422 Q 859.3 415.9 863.5 413 L 919.5 413 Q 920.6 413.1 920 418.5 L 916 435.5 L 914 455.5 L 917 453.5 Q 930 431 946.5 412 L 996.5 412 L 999 413 L 998 418.5 L 991 428.5 Q 972 466 950 500.5 L 946 508.5 L 946 512.5 L 987 598.5 L 888.5 599 L 887.5 600 L 695.5 600 L 690 595.5 Q 685.3 587.9 685 577 L 670.5 577 L 669 578.5 Q 665.6 591.6 656.5 599 L 654.5 600 L 620.5 600 L 619.5 601 L 352.5 601 L 351.5 600 L 335.5 600 Q 322.9 595.8 314 589 Q 313.7 595.9 309.5 600 L 307.5 601 L 170.5 601 L 128.5 642 L 126 642 L 100.5 602 Q 94.3 603.8 92.5 601 L 56.5 601 Q 41.1 597.4 33 586.5 L 30 581.5 L 27 570.5 L 27 555.5 L 37 514.5 L 37 510.5 L 43 489.5 L 51 450.5 Q 56.3 435.3 67.5 426 Q 77.4 416.9 93.5 414 L 149.5 414 Q 161 417 169.5 423 L 180.5 414 L 343.5 414 L 350.5 422 L 370.5 414 L 390.5 414 L 391.5 413 L 634.5 413 L 650.5 417 L 664 426.5 L 670.5 436 L 673 434.5 Q 678.1 422.1 687.5 414 L 689.5 413 L 729.5 413 L 736 418.5 L 742 448 Q 745 449.3 744 445.5 L 750 431.5 L 753 419.5 L 758.5 413 L 778.5 413 L 779.5 412 Z M 709 436 L 708 437 L 696 437 L 660 502 L 655 514 L 622 574 L 623 575 L 646 575 L 658 554 L 659 552 L 704 552 L 706 574 L 708 575 L 732 575 L 733 574 L 718 437 Q 715 435 709 436 Z M 774 436 L 757 507 L 757 513 L 755 517 L 741 573 L 743 575 L 768 574 L 770 560 L 778 526 L 779 523 L 799 523 L 800 525 L 808 569 Q 807 574 809 574 L 834 574 L 832 568 L 823 518 Q 831 517 837 511 L 848 498 L 855 467 Q 855 451 848 443 Q 844 437 836 436 L 774 436 Z M 879 436 L 877 438 Q 876 447 873 455 L 862 511 L 906 511 L 907 510 L 921 510 L 923 505 L 964 437 L 941 436 L 905 494 Q 899 496 888 495 L 901 438 L 900 436 L 879 436 Z M 193 437 L 190 440 L 187 452 L 187 456 L 176 501 L 174 516 L 172 520 L 172 524 L 166 547 Q 164 561 170 568 Q 175 575 187 577 L 230 577 L 241 574 L 249 569 Q 259 561 263 547 L 269 517 L 273 505 L 275 492 L 284 457 L 287 439 L 286 437 L 266 437 L 263 442 L 260 454 L 260 458 L 251 493 L 248 513 L 241 541 L 238 548 Q 235 552 229 553 L 197 553 L 195 552 L 191 549 L 190 545 L 191 544 L 191 537 L 193 527 L 203 491 L 214 439 L 213 437 L 193 437 Z M 307 437 L 304 442 L 301 454 L 299 467 L 289 507 L 289 512 L 274 573 L 275 576 L 297 576 L 308 530 L 311 512 L 316 497 L 318 484 L 320 480 L 320 476 L 328 443 Q 329 437 328 437 L 307 437 Z M 373 437 L 356 443 Q 344 451 340 466 L 335 491 L 332 500 L 330 514 L 322 545 Q 320 560 326 568 Q 331 574 342 576 L 383 576 Q 394 574 401 568 Q 410 560 414 546 L 414 542 L 391 542 L 390 548 L 385 552 L 351 552 L 346 547 L 353 512 L 356 505 L 363 472 L 366 465 L 373 462 L 400 462 L 404 464 L 406 468 L 406 476 L 408 477 L 428 477 L 430 476 L 430 457 L 426 447 L 422 442 L 408 437 L 373 437 Z M 453 437 L 442 491 L 440 496 L 437 516 L 424 571 Q 423 576 425 576 L 446 576 L 456 527 L 458 525 L 478 525 L 496 575 L 497 576 L 523 576 L 522 570 L 497 511 L 498 506 L 546 439 L 546 437 L 522 437 L 482 493 L 481 494 L 464 494 L 475 443 Q 476 437 475 437 L 453 437 Z M 574 437 L 572 439 L 561 485 L 542 575 L 544 576 L 562 576 L 565 570 L 574 526 L 577 523 L 582 524 L 584 523 L 619 523 Q 632 519 642 510 Q 648 504 652 495 L 657 477 L 657 459 L 653 449 Q 648 440 636 438 Q 630 440 629 437 L 574 437 Z M 102 438 Q 91 440 85 445 L 77 453 L 70 469 L 62 505 L 62 511 L 52 552 L 53 564 L 56 570 L 60 573 L 71 577 L 117 577 L 130 603 L 134 603 L 149 588 L 137 567 Q 146 558 149 545 L 156 510 L 158 507 L 166 471 Q 168 456 163 449 Q 158 440 146 438 L 102 438 Z M 863 512 L 860 517 L 856 540 L 848 572 L 849 574 L 871 574 L 873 569 L 882 525 L 884 523 L 903 523 L 905 526 L 926 573 L 928 574 L 949 574 L 946 565 L 921 514 L 921 512 L 863 512 Z " /><path fill="rgb(18,14,56)" stroke="rgb(18,14,56)" stroke-width="1" opacity="0.9882352941176471" d="M 668.5 413 L 669.5 415 L 668.5 413 Z " /><path fill="rgb(18,14,56)" stroke="rgb(18,14,56)" stroke-width="1" opacity="0.9882352941176471" d="M 38.5 453 L 39 455.5 L 37.5 460 L 37 456.5 L 38.5 453 Z " /><path fill="rgb(18,14,56)" stroke="rgb(18,14,56)" stroke-width="1" opacity="0.9882352941176471" d="M 793.5 458 L 822.5 458 L 829 461.5 Q 831.7 465.3 830 473.5 L 827 487.5 L 821.5 494 L 819.5 495 L 784 495 L 791 465.5 L 791 461.5 L 793.5 458 Z " /><path fill="rgb(18,14,56)" stroke="rgb(18,14,56)" stroke-width="1" opacity="0.9882352941176471" d="M 589.5 460 L 623.5 460 L 631 463 L 633 470.5 L 630 486.5 L 624.5 494 L 619.5 496 L 581 496 L 587 470.5 L 588 461.5 L 589.5 460 Z " /><path fill="rgb(18,14,56)" stroke="rgb(18,14,56)" stroke-width="1" opacity="0.9882352941176471" d="M 36.5 461 L 37 463.5 L 36 463.5 L 36.5 461 Z " /><path fill="rgb(18,14,56)" stroke="rgb(18,14,56)" stroke-width="1" opacity="0.9882352941176471" d="M 104.5 462 L 134.5 462 L 140 465.5 Q 142.5 469 141 476.5 L 138 486.5 L 134 506.5 L 134 512.5 L 132 517.5 L 128 539.5 L 122.5 549 L 113.5 553 L 82.5 553 L 77 549.5 L 76 541.5 L 92 475.5 Q 93.3 468.8 97.5 465 L 104.5 462 Z " /><path fill="rgb(18,14,56)" stroke="rgb(18,14,56)" stroke-width="1" opacity="0.9882352941176471" d="M 35.5 465 L 36 468.5 L 33.5 477 L 33 473.5 L 35.5 465 Z " /><path fill="rgb(18,14,56)" stroke="rgb(18,14,56)" stroke-width="1" opacity="0.9882352941176471" d="M 697 475 L 699 475.5 L 699 488.5 L 700 489.5 L 700 502.5 L 701 503.5 L 701 513.5 L 702 514.5 L 702 529 L 671.5 529 L 671 526.5 Q 686.1 502.5 697 475 Z " /><path fill="rgb(18,14,56)" stroke="rgb(18,14,56)" stroke-width="1" opacity="0.9882352941176471" d="M 32.5 478 L 33 481.5 L 30.5 490 L 30 485.5 L 32.5 478 Z " /><path fill="rgb(18,14,56)" stroke="rgb(18,14,56)" stroke-width="1" opacity="0.9882352941176471" d="M 29.5 491 L 30 493.5 L 29 493.5 L 29.5 491 Z " /><path fill="rgb(18,14,56)" stroke="rgb(18,14,56)" stroke-width="1" opacity="0.9882352941176471" d="M 28.5 495 L 29 498.5 L 27.5 503 L 27 498.5 L 28.5 495 Z " /><path fill="rgb(18,14,56)" stroke="rgb(18,14,56)" stroke-width="1" opacity="0.9882352941176471" d="M 26.5 504 L 27 507.5 L 25.5 512 L 25 507.5 L 26.5 504 Z " /><path fill="rgb(18,14,56)" stroke="rgb(18,14,56)" stroke-width="1" opacity="0.9882352941176471" d="M 759.5 512 L 764 512.5 L 759.5 513 L 759.5 512 Z " /><path fill="rgb(18,14,56)" stroke="rgb(18,14,56)" stroke-width="1" opacity="0.9882352941176471" d="M 24.5 513 L 25 516.5 L 17 549.5 L 16 570.5 L 19 582.5 L 18 582.5 L 15 571.5 L 15 555.5 L 24.5 513 Z " /><path fill="rgb(18,14,56)" stroke="rgb(18,14,56)" stroke-width="1" opacity="0.9882352941176471" d="M 22.5 591 L 23.5 593 L 22.5 591 Z " /><path fill="rgb(18,14,56)" stroke="rgb(18,14,56)" stroke-width="1" opacity="0.9882352941176471" d="M 675.5 591 Q 677.8 590.3 677 592.5 L 675.5 591 Z " /><path fill="rgb(18,14,56)" stroke="rgb(18,14,56)" stroke-width="1" opacity="0.9882352941176471" d="M 25.5 595 L 26.5 597 L 25.5 595 Z " /><path fill="rgb(18,14,56)" stroke="rgb(18,14,56)" stroke-width="1" opacity="0.9882352941176471" d="M 31.5 601 L 32.5 603 L 31.5 601 Z " /><path fill="rgb(18,14,56)" stroke="rgb(18,14,56)" stroke-width="1" opacity="0.9882352941176471" d="M 53.5 612 L 57 612.5 L 53.5 613 L 53.5 612 Z " /><path fill="rgb(18,14,56)" stroke="rgb(18,14,56)" stroke-width="1" opacity="0.9882352941176471" d="M 205.5 612 L 310 612.5 L 205.5 613 L 205.5 612 Z " /><path fill="rgb(18,14,56)" stroke="rgb(18,14,56)" stroke-width="1" opacity="0.9882352941176471" d="M 336.5 612 L 618 612.5 L 336.5 613 L 336.5 612 Z " /><path fill="rgb(18,14,56)" stroke="rgb(18,14,56)" stroke-width="1" opacity="0.9882352941176471" d="M 59.5 613 L 93.5 613 L 96 615.5 L 93.5 614 L 59.5 614 L 59.5 613 Z " /><path fill="rgb(18,14,56)" stroke="rgb(18,14,56)" stroke-width="1" opacity="0.9882352941176471" d="M 174.5 613 L 166.5 622 L 174.5 613 Z " /><path fill="rgb(18,14,56)" stroke="rgb(18,14,56)" stroke-width="1" opacity="0.9882352941176471" d="M 96.5 617 L 97.5 619 L 96.5 617 Z " /><path fill="rgb(18,14,56)" stroke="rgb(18,14,56)" stroke-width="1" opacity="0.9882352941176471" d="M 100.5 623 L 101.5 625 L 100.5 623 Z " /><path fill="rgb(18,14,56)" stroke="rgb(18,14,56)" stroke-width="1" opacity="0.9882352941176471" d="M 102.5 626 L 103.5 628 L 102.5 626 Z " /><path fill="rgb(18,14,56)" stroke="rgb(18,14,56)" stroke-width="1" opacity="0.9882352941176471" d="M 104.5 629 L 108 633.5 L 106 632.5 L 104.5 629 Z " /><path fill="rgb(18,14,56)" stroke="rgb(18,14,56)" stroke-width="1" opacity="0.9882352941176471" d="M 155.5 631 L 137.5 650 L 155.5 631 Z " /><path fill="rgb(18,14,56)" stroke="rgb(18,14,56)" stroke-width="1" opacity="0.9882352941176471" d="M 109.5 636 L 110.5 638 L 109.5 636 Z " /><path fill="rgb(18,14,56)" stroke="rgb(18,14,56)" stroke-width="1" opacity="0.9882352941176471" d="M 111.5 639 L 113 641.5 L 111 640.5 L 111.5 639 Z " /><path fill="rgb(18,14,56)" stroke="rgb(18,14,56)" stroke-width="1" opacity="0.9882352941176471" d="M 117.5 649 L 118.5 651 L 117.5 649 Z " /><path fill="rgb(18,14,56)" stroke="rgb(18,14,56)" stroke-width="1" opacity="0.9882352941176471" d="M 121.5 653 L 122.5 655 L 121.5 653 Z " /><path fill="rgb(18,14,56)" stroke="rgb(18,14,56)" stroke-width="1" opacity="0.9882352941176471" d="M 132.5 653 L 131.5 655 L 132.5 653 Z " /><path fill="rgb(179,105,163)" stroke="rgb(179,105,163)" stroke-width="1" opacity="0.9803921568627451" d="M 444.5 400 L 461.5 400 L 464.5 402 L 467.5 401 L 471.5 402 L 473.5 402 L 627.5 401 L 628.5 402 L 638 402.5 L 592 403.5 L 595 404 L 596 408 Q 590.4 406.1 592 411 L 634.5 412 L 640 413.5 L 635.5 414 L 634.5 413 L 391.5 413 L 390.5 414 L 370.5 414 L 350.5 422 L 343.5 414 L 180.5 414 L 168.5 423 Q 160.7 416.8 149.5 414 L 93.5 414 Q 72.4 418.4 61 432.5 L 53 445.5 L 48 462.5 L 43 489.5 L 37 510.5 L 37 514.5 L 27 555.5 L 27 570.5 L 30 581.5 L 39.5 593 Q 46.3 598.7 56.5 601 L 92.5 601 Q 94.3 603.8 100.5 602 L 102 603.5 L 126 642 L 128.5 642 L 170.5 601 L 307.5 601 L 311 598.5 L 314 589 Q 322.9 595.8 335.5 600 L 351.5 600 L 352.5 601 L 619.5 601 L 620.5 600 L 654.5 600 L 662 593.5 L 670.5 577 L 684.5 577 Q 685.5 577 685 581.5 Q 686.8 592.8 693.5 599 L 695.5 600 L 851 600.5 L 717.5 601 L 716.5 602 L 708 602.5 L 712 604.5 L 708 606.5 L 711 607 Q 712.1 610.5 704.5 609 L 704.5 610 L 735.5 610 L 736.5 611 L 990 611.5 L 695.5 612 Q 685.6 609.9 681 602.5 L 677 591 Q 674.3 589.9 675 592.5 Q 671.2 602.2 663.5 608 L 653.5 612 L 333.5 612 L 319.5 606 L 311.5 612 L 205.5 612 L 204.5 613 L 181.5 613 L 179.5 612 L 174.5 613 L 137 649.5 L 135.5 652 L 130.5 655 L 123.5 655 L 119 651.5 L 113 640.5 L 93.5 613 L 57.5 613 Q 56.2 610.8 51.5 612 Q 36.4 607.6 27 597.5 Q 14.5 584 16 556.5 L 29 494.5 L 41 445.5 Q 47.9 426.9 62.5 416 Q 72 408 85.5 404 L 90.5 403 L 108.5 403 L 111.5 402 Q 112.7 404.3 117.5 403 L 118.5 402 L 148.5 402 L 157.5 404 L 167.5 409 L 171.5 405 L 179.5 402 L 332.5 402 L 333.5 401 L 343.5 401 L 356.5 407 L 365.5 403 Q 372.2 403.7 375.5 401 L 443.5 401 L 444.5 400 Z M 671 580 Q 668 582 671 583 Q 674 582 671 580 Z M 670 583 L 668 585 L 669 586 L 671 585 L 670 583 Z M 672 584 L 672 586 L 674 585 L 672 584 Z M 670 588 L 667 594 Q 668 596 672 595 Q 671 592 674 591 Q 674 588 670 588 Z M 666 592 L 664 594 L 666 594 L 666 592 Z " /><path fill="rgb(179,105,163)" stroke="rgb(179,105,163)" stroke-width="1" opacity="0.9803921568627451" d="M 758.5 400 L 830.5 400 L 842 402.5 L 837.5 403 L 829.5 401 L 759.5 401 Q 750.6 402.6 746.5 409 L 751.5 403 L 758.5 400 Z " /><path fill="rgb(179,105,163)" stroke="rgb(179,105,163)" stroke-width="1" opacity="0.9803921568627451" d="M 861.5 400 L 921 400.5 L 861.5 401 L 861.5 400 Z " /><path fill="rgb(179,105,163)" stroke="rgb(179,105,163)" stroke-width="1" opacity="0.9803921568627451" d="M 944.5 400 L 998 400.5 L 944.5 401 L 944.5 400 Z " /><path fill="rgb(179,105,163)" stroke="rgb(179,105,163)" stroke-width="1" opacity="0.9803921568627451" d="M 686.5 401 L 732.5 401 L 742 407.5 L 743 409.5 L 741 408.5 L 738.5 405 L 731.5 402 L 686.5 402 Q 678.4 404.9 674 411.5 L 671.5 415 L 669.5 416 Q 658.6 405.4 639 403.5 L 644.5 403 Q 660 406 669.5 415 Q 675.4 405.4 686.5 401 Z " /><path fill="rgb(179,105,163)" stroke="rgb(179,105,163)" stroke-width="1" opacity="0.9803921568627451" d="M 858.5 401 L 860 401.5 L 851.5 407 L 843 403.5 L 845.5 403 L 851.5 406 L 858.5 401 Z " /><path fill="rgb(179,105,163)" stroke="rgb(179,105,163)" stroke-width="1" opacity="0.9803921568627451" d="M 925.5 402 L 931 409 L 934.5 407 L 932.5 410 L 930 408.5 L 925.5 402 Z " /><path fill="rgb(179,105,163)" stroke="rgb(179,105,163)" stroke-width="1" opacity="0.9803921568627451" d="M 939.5 402 L 938.5 404 L 939.5 402 Z " /><path fill="rgb(179,105,163)" stroke="rgb(179,105,163)" stroke-width="1" opacity="0.9803921568627451" d="M 1005.5 403 L 1007.5 406 L 1005.5 403 Z " /><path fill="rgb(179,105,163)" stroke="rgb(179,105,163)" stroke-width="1" opacity="0.9803921568627451" d="M 745.5 410 L 744.5 412 L 743 411.5 L 745.5 410 Z " /><path fill="rgb(179,105,163)" stroke="rgb(179,105,163)" stroke-width="1" opacity="0.9803921568627451" d="M 689.5 412 L 729.5 412 L 736 417.5 L 731.5 414 L 729.5 413 L 689.5 413 L 682.5 419 L 687.5 413 L 689.5 412 Z " /><path fill="rgb(179,105,163)" stroke="rgb(179,105,163)" stroke-width="1" opacity="0.9803921568627451" d="M 759.5 412 L 779 412.5 L 759.5 413 L 759.5 412 Z " /><path fill="rgb(179,105,163)" stroke="rgb(179,105,163)" stroke-width="1" opacity="0.9803921568627451" d="M 830.5 412 L 835 412.5 L 830.5 413 L 830.5 412 Z " /><path fill="rgb(179,105,163)" stroke="rgb(179,105,163)" stroke-width="1" opacity="0.9803921568627451" d="M 864.5 412 L 919.5 412 L 921 413.5 L 920.5 417 L 920 413 L 864.5 413 L 864.5 412 Z " /><path fill="rgb(179,105,163)" stroke="rgb(179,105,163)" stroke-width="1" opacity="0.9803921568627451" d="M 945.5 412 L 942.5 416 L 945.5 412 Z " /><path fill="rgb(179,105,163)" stroke="rgb(179,105,163)" stroke-width="1" opacity="0.9803921568627451" d="M 757.5 413 L 754.5 417 L 757.5 413 Z " /><path fill="rgb(179,105,163)" stroke="rgb(179,105,163)" stroke-width="1" opacity="0.9803921568627451" d="M 641.5 414 L 650 416.5 L 648.5 417 L 641.5 415 L 641.5 414 Z " /><path fill="rgb(179,105,163)" stroke="rgb(179,105,163)" stroke-width="1" opacity="0.9803921568627451" d="M 651.5 417 L 654 418.5 L 652.5 418 L 651.5 417 Z " /><path fill="rgb(179,105,163)" stroke="rgb(179,105,163)" stroke-width="1" opacity="0.9803921568627451" d="M 941.5 417 L 940.5 419 L 941.5 417 Z " /><path fill="rgb(179,105,163)" stroke="rgb(179,105,163)" stroke-width="1" opacity="0.9803921568627451" d="M 655.5 419 L 661 423.5 L 657.5 421 L 655.5 419 Z " /><path fill="rgb(179,105,163)" stroke="rgb(179,105,163)" stroke-width="1" opacity="0.9803921568627451" d="M 853.5 419 L 854.5 421 L 853.5 419 Z " /><path fill="rgb(179,105,163)" stroke="rgb(179,105,163)" stroke-width="1" opacity="0.9803921568627451" d="M 997.5 419 L 996.5 421 L 997.5 419 Z " /><path fill="rgb(179,105,163)" stroke="rgb(179,105,163)" stroke-width="1" opacity="0.9803921568627451" d="M 681.5 420 L 680 422.5 L 678.5 425 L 679 423.5 L 681.5 420 Z " /><path fill="rgb(179,105,163)" stroke="rgb(179,105,163)" stroke-width="1" opacity="0.9803921568627451" d="M 938.5 421 L 937.5 423 L 938.5 421 Z " /><path fill="rgb(179,105,163)" stroke="rgb(179,105,163)" stroke-width="1" opacity="0.9803921568627451" d="M 737.5 422 L 738 424.5 L 737 424.5 L 737.5 422 Z " /><path fill="rgb(179,105,163)" stroke="rgb(179,105,163)" stroke-width="1" opacity="0.9803921568627451" d="M 995.5 422 L 994.5 424 L 995.5 422 Z " /><path fill="rgb(179,105,163)" stroke="rgb(179,105,163)" stroke-width="1" opacity="0.9803921568627451" d="M 662.5 424 L 670 435 L 672.5 434 L 671.5 436 L 669 434.5 L 662.5 424 Z " /><path fill="rgb(179,105,163)" stroke="rgb(179,105,163)" stroke-width="1" opacity="0.9803921568627451" d="M 918.5 424 L 919 426.5 L 918 426.5 L 918.5 424 Z " /><path fill="rgb(179,105,163)" stroke="rgb(179,105,163)" stroke-width="1" opacity="0.9803921568627451" d="M 936.5 424 L 935.5 426 L 936.5 424 Z " /><path fill="rgb(179,105,163)" stroke="rgb(179,105,163)" stroke-width="1" opacity="0.9803921568627451" d="M 1007.5 425 L 1007 426.5 L 1005.5 429 L 1006 427.5 L 1007.5 425 Z " /><path fill="rgb(179,105,163)" stroke="rgb(179,105,163)" stroke-width="1" opacity="0.9803921568627451" d="M 677.5 426 L 676.5 428 L 677.5 426 Z " /><path fill="rgb(179,105,163)" stroke="rgb(179,105,163)" stroke-width="1" opacity="0.9803921568627451" d="M 738.5 426 L 739 428.5 L 738 428.5 L 738.5 426 Z " /><path fill="rgb(179,105,163)" stroke="rgb(179,105,163)" stroke-width="1" opacity="0.9803921568627451" d="M 992.5 427 L 991.5 429 L 992.5 427 Z " /><path fill="rgb(179,105,163)" stroke="rgb(179,105,163)" stroke-width="1" opacity="0.9803921568627451" d="M 933.5 428 L 932.5 430 L 933.5 428 Z " /><path fill="rgb(179,105,163)" stroke="rgb(179,105,163)" stroke-width="1" opacity="0.9803921568627451" d="M 675.5 429 L 675 430.5 L 673.5 433 L 674 431.5 L 675.5 429 Z " /><path fill="rgb(179,105,163)" stroke="rgb(179,105,163)" stroke-width="1" opacity="0.9803921568627451" d="M 917.5 430 L 918 432.5 L 917 432.5 L 917.5 430 Z " /><path fill="rgb(179,105,163)" stroke="rgb(179,105,163)" stroke-width="1" opacity="0.9803921568627451" d="M 739.5 431 L 740 434.5 L 739 434.5 L 739.5 431 Z " /><path fill="rgb(179,105,163)" stroke="rgb(179,105,163)" stroke-width="1" opacity="0.9803921568627451" d="M 931.5 431 L 930.5 433 L 931.5 431 Z " /><path fill="rgb(179,105,163)" stroke="rgb(179,105,163)" stroke-width="1" opacity="0.9803921568627451" d="M 1003.5 432 L 1002.5 434 L 1003.5 432 Z " /><path fill="rgb(179,105,163)" stroke="rgb(179,105,163)" stroke-width="1" opacity="0.9803921568627451" d="M 916.5 435 L 917 437.5 L 916 437.5 L 916.5 435 Z " /><path fill="rgb(179,105,163)" stroke="rgb(179,105,163)" stroke-width="1" opacity="0.9803921568627451" d="M 708.5 436 L 716 436.5 L 708.5 437 L 708.5 436 Z " /><path fill="rgb(179,105,163)" stroke="rgb(179,105,163)" stroke-width="1" opacity="0.9803921568627451" d="M 774.5 436 L 836 436.5 L 774.5 437 L 774.5 436 Z " /><path fill="rgb(179,105,163)" stroke="rgb(179,105,163)" stroke-width="1" opacity="0.9803921568627451" d="M 878.5 436 L 893 436.5 L 878 437 L 877.5 439 L 877 437.5 L 878.5 436 Z " /><path fill="rgb(179,105,163)" stroke="rgb(179,105,163)" stroke-width="1" opacity="0.9803921568627451" d="M 897.5 436 L 901 437.5 L 899.5 437 Q 896.5 437.5 897.5 436 Z " /><path fill="rgb(179,105,163)" stroke="rgb(179,105,163)" stroke-width="1" opacity="0.9803921568627451" d="M 940.5 436 L 948 436.5 L 940.5 437 L 938.5 439 L 940.5 436 Z " /><path fill="rgb(179,105,163)" stroke="rgb(179,105,163)" stroke-width="1" opacity="0.9803921568627451" d="M 192.5 437 L 212.5 437 L 214 438.5 L 199.5 503 L 199 499.5 L 213 438 L 192.5 438 L 191 439.5 L 178.5 495 L 178 491.5 L 190 439.5 L 192.5 437 Z " /><path fill="rgb(179,105,163)" stroke="rgb(179,105,163)" stroke-width="1" opacity="0.9803921568627451" d="M 265.5 437 L 285.5 437 L 287 438.5 L 284 456.5 L 275 491.5 L 273 504.5 L 269 516.5 L 263 546.5 Q 259.1 561.1 248.5 569 L 240.5 574 L 229.5 577 L 186.5 577 Q 175.5 575 170 567.5 Q 164.2 560.8 166 546.5 L 172 523.5 L 172 519.5 L 174 515.5 L 175.5 505 L 177.5 508 L 192.5 508 L 198 507 L 198.5 504 L 199 506.5 L 196 513.5 L 190 544.5 L 191 548.5 L 194.5 552 L 196.5 553 L 228.5 553 Q 235.1 552.1 238 547.5 L 241 540.5 L 248 512.5 L 248 507 L 250.5 508 L 271 508 L 286 439 L 276.5 438 L 275.5 439 L 265 439 L 249.5 506 L 249 502.5 L 263 441.5 L 265.5 437 Z M 176 553 L 175 554 L 168 554 Q 168 561 171 566 L 176 570 L 177 569 Q 182 567 181 571 L 184 572 L 185 570 Q 187 566 193 568 Q 195 563 189 565 L 189 561 L 181 561 L 181 557 L 176 553 Z " /><path fill="rgb(179,105,163)" stroke="rgb(179,105,163)" stroke-width="1" opacity="0.9803921568627451" d="M 306.5 437 L 327.5 437 Q 328.6 437.1 328 442.5 L 313.5 505 L 313 501.5 L 320 474.5 L 327 438 L 307.5 438 L 306 439.5 L 294.5 488 L 294 484.5 L 304 441.5 L 306.5 437 Z " /><path fill="rgb(179,105,163)" stroke="rgb(179,105,163)" stroke-width="1" opacity="0.9803921568627451" d="M 372.5 437 L 407.5 437 L 421.5 442 L 426 446.5 Q 430.2 451.8 430 461.5 L 429 461.5 Q 429.3 446.7 419.5 442 L 405.5 438 L 374.5 438 L 359.5 442 L 347 452.5 L 343 459.5 L 338.5 477 L 338 473.5 L 344 455.5 L 355.5 443 L 372.5 437 Z " /><path fill="rgb(179,105,163)" stroke="rgb(179,105,163)" stroke-width="1" opacity="0.9803921568627451" d="M 453 437 L 474.5 437 Q 475.6 437.1 475 442.5 L 474 442.5 Q 474.5 438 473.5 438 L 454 438 L 452.5 444 L 452 440.5 L 453 437 Z " /><path fill="rgb(179,105,163)" stroke="rgb(179,105,163)" stroke-width="1" opacity="0.9803921568627451" d="M 521.5 437 L 545.5 437 L 546 438.5 L 498 505.5 L 497 510.5 L 522 569.5 L 523 576 L 496.5 576 L 496 574.5 L 478 525 L 457.5 525 L 456 526.5 L 446 576 L 424.5 576 Q 423.4 575.9 424 570.5 L 438.5 505 L 439 510 L 494.5 510 L 496 508.5 L 530 460.5 L 544 438 L 522.5 438 L 519 441.5 L 480.5 495 L 463 494.5 L 480.5 494 L 482 492.5 L 521.5 437 Z M 501 547 L 499 549 L 499 550 L 503 550 L 501 554 L 499 554 L 499 552 L 491 552 Q 491 564 497 573 L 498 574 L 521 574 Q 517 560 511 549 L 501 547 Z M 441 557 L 432 562 L 432 563 L 428 563 L 426 570 Q 425 574 427 574 L 444 574 L 445 573 L 447 562 L 446 562 L 443 561 L 441 557 Z " /><path fill="rgb(179,105,163)" stroke="rgb(179,105,163)" stroke-width="1" opacity="0.9803921568627451" d="M 573.5 437 L 629 437.5 L 573.5 438 L 572.5 439 L 573.5 437 Z " /><path fill="rgb(179,105,163)" stroke="rgb(179,105,163)" stroke-width="1" opacity="0.9803921568627451" d="M 740.5 437 L 741 439.5 L 740 439.5 L 740.5 437 Z " /><path fill="rgb(179,105,163)" stroke="rgb(179,105,163)" stroke-width="1" opacity="0.9803921568627451" d="M 101.5 438 L 145.5 438 Q 157.5 440 163 448.5 Q 167.9 456.1 166 470.5 L 161.5 490 L 161 485.5 L 165 469.5 L 165 457.5 Q 163.8 449.2 158.5 445 L 145.5 439 L 101.5 439 Q 87.4 441.4 80 450.5 L 73 462.5 L 68.5 480 L 68 476.5 Q 70.7 462.7 77 452.5 L 84.5 445 Q 91.4 439.9 101.5 438 Z " /><path fill="rgb(179,105,163)" stroke="rgb(179,105,163)" stroke-width="1" opacity="0.9803921568627451" d="M 999.5 439 L 998.5 441 L 999.5 439 Z " /><path fill="rgb(179,105,163)" stroke="rgb(179,105,163)" stroke-width="1" opacity="0.9803921568627451" d="M 845.5 440 L 847.5 443 L 845.5 440 Z " /><path fill="rgb(179,105,163)" stroke="rgb(179,105,163)" stroke-width="1" opacity="0.9803921568627451" d="M 937.5 440 L 936.5 442 L 937.5 440 Z " /><path fill="rgb(179,105,163)" stroke="rgb(179,105,163)" stroke-width="1" opacity="0.9803921568627451" d="M 694.5 441 L 693.5 443 L 694.5 441 Z " /><path fill="rgb(179,105,163)" stroke="rgb(179,105,163)" stroke-width="1" opacity="0.9803921568627451" d="M 741.5 442 L 742 445.5 L 741 445.5 L 741.5 442 Z " /><path fill="rgb(179,105,163)" stroke="rgb(179,105,163)" stroke-width="1" opacity="0.9803921568627451" d="M 718.5 443 L 719 446.5 L 718 446.5 L 718.5 443 Z " /><path fill="rgb(179,105,163)" stroke="rgb(179,105,163)" stroke-width="1" opacity="0.9803921568627451" d="M 923.5 443 L 922.5 445 L 923.5 443 Z " /><path fill="rgb(179,105,163)" stroke="rgb(179,105,163)" stroke-width="1" opacity="0.9803921568627451" d="M 473.5 444 L 474 447.5 L 473 447.5 L 473.5 444 Z " /><path fill="rgb(179,105,163)" stroke="rgb(179,105,163)" stroke-width="1" opacity="0.9803921568627451" d="M 451.5 445 L 452 448.5 L 450.5 453 L 450 449.5 L 451.5 445 Z " /><path fill="rgb(179,105,163)" stroke="rgb(179,105,163)" stroke-width="1" opacity="0.9803921568627451" d="M 743.5 446 L 744 448 L 742 447.5 L 743.5 446 Z " /><path fill="rgb(179,105,163)" stroke="rgb(179,105,163)" stroke-width="1" opacity="0.9803921568627451" d="M 995.5 446 L 994.5 448 L 995.5 446 Z " /><path fill="rgb(179,105,163)" stroke="rgb(179,105,163)" stroke-width="1" opacity="0.9803921568627451" d="M 651.5 447 L 652.5 449 L 651.5 447 Z " /><path fill="rgb(179,105,163)" stroke="rgb(179,105,163)" stroke-width="1" opacity="0.9803921568627451" d="M 690.5 448 L 689.5 450 L 690.5 448 Z " /><path fill="rgb(179,105,163)" stroke="rgb(179,105,163)" stroke-width="1" opacity="0.9803921568627451" d="M 914.5 448 L 915 451.5 L 914 451.5 L 914.5 448 Z " /><path fill="rgb(179,105,163)" stroke="rgb(179,105,163)" stroke-width="1" opacity="0.9803921568627451" d="M 472.5 449 L 473 452.5 L 472 452.5 L 472.5 449 Z " /><path fill="rgb(179,105,163)" stroke="rgb(179,105,163)" stroke-width="1" opacity="0.9803921568627451" d="M 919.5 449 L 918.5 451 L 919.5 449 Z " /><path fill="rgb(179,105,163)" stroke="rgb(179,105,163)" stroke-width="1" opacity="0.9803921568627451" d="M 956.5 449 L 955.5 451 L 956.5 449 Z " /><path fill="rgb(179,105,163)" stroke="rgb(179,105,163)" stroke-width="1" opacity="0.9803921568627451" d="M 653.5 450 L 655 452.5 L 654 452.5 L 653.5 450 Z " /><path fill="rgb(179,105,163)" stroke="rgb(179,105,163)" stroke-width="1" opacity="0.9803921568627451" d="M 770.5 450 L 771 452.5 L 770 452.5 L 770.5 450 Z " /><path fill="rgb(179,105,163)" stroke="rgb(179,105,163)" stroke-width="1" opacity="0.9803921568627451" d="M 931.5 450 L 930.5 452 L 931.5 450 Z " /><path fill="rgb(179,105,163)" stroke="rgb(179,105,163)" stroke-width="1" opacity="0.9803921568627451" d="M 719.5 451 L 720 455.5 L 719 455.5 L 719.5 451 Z " /><path fill="rgb(179,105,163)" stroke="rgb(179,105,163)" stroke-width="1" opacity="0.9803921568627451" d="M 916.5 453 L 914.5 456 L 916.5 453 Z " /><path fill="rgb(179,105,163)" stroke="rgb(179,105,163)" stroke-width="1" opacity="0.9803921568627451" d="M 991.5 453 L 990.5 455 L 991.5 453 Z " /><path fill="rgb(179,105,163)" stroke="rgb(179,105,163)" stroke-width="1" opacity="0.9803921568627451" d="M 449.5 454 L 450 457.5 L 448.5 462 L 448 458.5 L 449.5 454 Z " /><path fill="rgb(179,105,163)" stroke="rgb(179,105,163)" stroke-width="1" opacity="0.9803921568627451" d="M 471.5 454 L 472 457.5 L 471 457.5 L 471.5 454 Z " /><path fill="rgb(179,105,163)" stroke="rgb(179,105,163)" stroke-width="1" opacity="0.9803921568627451" d="M 953.5 454 L 952.5 456 L 953.5 454 Z " /><path fill="rgb(179,105,163)" stroke="rgb(179,105,163)" stroke-width="1" opacity="0.9803921568627451" d="M 685.5 457 L 684.5 459 L 685.5 457 Z " /><path fill="rgb(179,105,163)" stroke="rgb(179,105,163)" stroke-width="1" opacity="0.9803921568627451" d="M 656.5 458 L 657 461.5 L 656 461.5 L 656.5 458 Z " /><path fill="rgb(179,105,163)" stroke="rgb(179,105,163)" stroke-width="1" opacity="0.9803921568627451" d="M 792.5 458 L 792 459.5 L 791.5 461 L 791 459.5 L 792.5 458 Z " /><path fill="rgb(179,105,163)" stroke="rgb(179,105,163)" stroke-width="1" opacity="0.9803921568627451" d="M 988.5 458 L 988 459.5 L 986.5 462 L 987 460.5 L 988.5 458 Z " /><path fill="rgb(179,105,163)" stroke="rgb(179,105,163)" stroke-width="1" opacity="0.9803921568627451" d="M 470.5 459 L 471 462.5 L 470 462.5 L 470.5 459 Z " /><path fill="rgb(179,105,163)" stroke="rgb(179,105,163)" stroke-width="1" opacity="0.9803921568627451" d="M 768.5 459 L 769 461.5 L 768 461.5 L 768.5 459 Z " /><path fill="rgb(179,105,163)" stroke="rgb(179,105,163)" stroke-width="1" opacity="0.9803921568627451" d="M 854.5 459 L 855 466.5 L 854 466.5 L 854.5 459 Z " /><path fill="rgb(179,105,163)" stroke="rgb(179,105,163)" stroke-width="1" opacity="0.9803921568627451" d="M 720.5 460 L 721 464.5 L 720 464.5 L 720.5 460 Z " /><path fill="rgb(179,105,163)" stroke="rgb(179,105,163)" stroke-width="1" opacity="0.9803921568627451" d="M 925.5 460 L 924.5 462 L 925.5 460 Z " /><path fill="rgb(179,105,163)" stroke="rgb(179,105,163)" stroke-width="1" opacity="0.9803921568627451" d="M 113.5 461 L 134 461.5 L 113.5 462 L 113.5 461 Z " /><path fill="rgb(179,105,163)" stroke="rgb(179,105,163)" stroke-width="1" opacity="0.9803921568627451" d="M 372.5 461 L 399.5 461 L 406 465.5 L 407 476 L 427.5 476 L 429 474.5 L 429.5 470 L 430 476 L 427.5 477 L 407.5 477 L 406 475.5 L 406 467.5 L 403.5 464 L 399.5 462 L 372.5 462 L 366 465 L 363 471.5 L 356 504.5 L 353 511.5 L 346 546.5 L 350.5 552 L 384.5 552 L 390 547.5 L 391 542 L 413.5 542 L 414 545.5 Q 410.3 559.8 400.5 568 Q 393.5 574 382.5 576 L 341.5 576 Q 331.3 574.3 326 567.5 Q 319.8 560.2 322 544.5 L 331.5 504 L 332 508 L 352.5 508 L 354 506.5 L 362 471.5 Q 363.3 465.8 367.5 463 L 372.5 461 Z " /><path fill="rgb(179,105,163)" stroke="rgb(179,105,163)" stroke-width="1" opacity="0.9803921568627451" d="M 628.5 461 L 629.5 463 L 628.5 461 Z " /><path fill="rgb(179,105,163)" stroke="rgb(179,105,163)" stroke-width="1" opacity="0.9803921568627451" d="M 100.5 462 L 104 462.5 Q 98.1 462.6 96 466.5 L 92 475.5 L 87.5 495 L 87 491.5 L 93 469.5 L 98.5 463 L 100.5 462 Z " /><path fill="rgb(179,105,163)" stroke="rgb(179,105,163)" stroke-width="1" opacity="0.9803921568627451" d="M 135.5 462 Q 140.5 461.5 141 465.5 Q 143.5 469 142 476.5 L 140.5 481 L 140 477.5 L 141 476.5 L 141 467.5 L 137.5 463 Q 134.5 463.5 135.5 462 Z " /><path fill="rgb(179,105,163)" stroke="rgb(179,105,163)" stroke-width="1" opacity="0.9803921568627451" d="M 447.5 463 L 448 466.5 L 447 466.5 L 447.5 463 Z " /><path fill="rgb(179,105,163)" stroke="rgb(179,105,163)" stroke-width="1" opacity="0.9803921568627451" d="M 790.5 463 L 791 465.5 L 790 465.5 L 790.5 463 Z " /><path fill="rgb(179,105,163)" stroke="rgb(179,105,163)" stroke-width="1" opacity="0.9803921568627451" d="M 469.5 464 L 470 467.5 L 468.5 473 L 468 468.5 L 469.5 464 Z " /><path fill="rgb(179,105,163)" stroke="rgb(179,105,163)" stroke-width="1" opacity="0.9803921568627451" d="M 830.5 464 L 831 470.5 L 830 470.5 L 830.5 464 Z " /><path fill="rgb(179,105,163)" stroke="rgb(179,105,163)" stroke-width="1" opacity="0.9803921568627451" d="M 947.5 464 L 946.5 466 L 947.5 464 Z " /><path fill="rgb(179,105,163)" stroke="rgb(179,105,163)" stroke-width="1" opacity="0.9803921568627451" d="M 922.5 465 L 921.5 467 L 922.5 465 Z " /><path fill="rgb(179,105,163)" stroke="rgb(179,105,163)" stroke-width="1" opacity="0.9803921568627451" d="M 983.5 467 L 982.5 469 L 983.5 467 Z " /><path fill="rgb(179,105,163)" stroke="rgb(179,105,163)" stroke-width="1" opacity="0.9803921568627451" d="M 446.5 468 L 447 470.5 L 446 470.5 L 446.5 468 Z " /><path fill="rgb(179,105,163)" stroke="rgb(179,105,163)" stroke-width="1" opacity="0.9803921568627451" d="M 721.5 469 L 722 473.5 L 721 473.5 L 721.5 469 Z " /><path fill="rgb(179,105,163)" stroke="rgb(179,105,163)" stroke-width="1" opacity="0.9803921568627451" d="M 944.5 469 L 943.5 471 L 944.5 469 Z " /><path fill="rgb(179,105,163)" stroke="rgb(179,105,163)" stroke-width="1" opacity="0.9803921568627451" d="M 853.5 470 L 854 472.5 L 853 472.5 L 853.5 470 Z " /><path fill="rgb(179,105,163)" stroke="rgb(179,105,163)" stroke-width="1" opacity="0.9803921568627451" d="M 632.5 471 L 633 474.5 L 632 474.5 L 632.5 471 Z " /><path fill="rgb(179,105,163)" stroke="rgb(179,105,163)" stroke-width="1" opacity="0.9803921568627451" d="M 445.5 472 L 446 475.5 L 445 475.5 L 445.5 472 Z " /><path fill="rgb(179,105,163)" stroke="rgb(179,105,163)" stroke-width="1" opacity="0.9803921568627451" d="M 656.5 472 L 657 476.5 L 656 476.5 L 656.5 472 Z " /><path fill="rgb(179,105,163)" stroke="rgb(179,105,163)" stroke-width="1" opacity="0.9803921568627451" d="M 765.5 472 L 766 474.5 L 765 474.5 L 765.5 472 Z " /><path fill="rgb(179,105,163)" stroke="rgb(179,105,163)" stroke-width="1" opacity="0.9803921568627451" d="M 698.5 473 L 699 475 L 697 474.5 L 698.5 473 Z " /><path fill="rgb(179,105,163)" stroke="rgb(179,105,163)" stroke-width="1" opacity="0.9803921568627451" d="M 917.5 473 L 916.5 475 L 917.5 473 Z " /><path fill="rgb(179,105,163)" stroke="rgb(179,105,163)" stroke-width="1" opacity="0.9803921568627451" d="M 467.5 474 L 468 477.5 L 467 477.5 L 467.5 474 Z " /><path fill="rgb(179,105,163)" stroke="rgb(179,105,163)" stroke-width="1" opacity="0.9803921568627451" d="M 979.5 474 L 978.5 476 L 979.5 474 Z " /><path fill="rgb(179,105,163)" stroke="rgb(179,105,163)" stroke-width="1" opacity="0.9803921568627451" d="M 675.5 475 L 674.5 477 L 675.5 475 Z " /><path fill="rgb(179,105,163)" stroke="rgb(179,105,163)" stroke-width="1" opacity="0.9803921568627451" d="M 965.5 475 L 964.5 477 L 965.5 475 Z " /><path fill="rgb(179,105,163)" stroke="rgb(179,105,163)" stroke-width="1" opacity="0.9803921568627451" d="M 787.5 476 L 788 478.5 L 787 478.5 L 787.5 476 Z " /><path fill="rgb(179,105,163)" stroke="rgb(179,105,163)" stroke-width="1" opacity="0.9803921568627451" d="M 444.5 477 L 445 479.5 L 444 479.5 L 444.5 477 Z " /><path fill="rgb(179,105,163)" stroke="rgb(179,105,163)" stroke-width="1" opacity="0.9803921568627451" d="M 939.5 477 L 938.5 479 L 939.5 477 Z " /><path fill="rgb(179,105,163)" stroke="rgb(179,105,163)" stroke-width="1" opacity="0.9803921568627451" d="M 337.5 478 L 338 481.5 L 332.5 503 L 332 499.5 L 337.5 478 Z " /><path fill="rgb(179,105,163)" stroke="rgb(179,105,163)" stroke-width="1" opacity="0.9803921568627451" d="M 631.5 478 L 632 480.5 L 631 480.5 L 631.5 478 Z " /><path fill="rgb(179,105,163)" stroke="rgb(179,105,163)" stroke-width="1" opacity="0.9803921568627451" d="M 722.5 478 L 723 483.5 L 722 483.5 L 722.5 478 Z " /><path fill="rgb(179,105,163)" stroke="rgb(179,105,163)" stroke-width="1" opacity="0.9803921568627451" d="M 466.5 479 L 467 482.5 L 466 482.5 L 466.5 479 Z " /><path fill="rgb(179,105,163)" stroke="rgb(179,105,163)" stroke-width="1" opacity="0.9803921568627451" d="M 976.5 479 L 976 480.5 L 974.5 483 L 975 481.5 L 976.5 479 Z " /><path fill="rgb(179,105,163)" stroke="rgb(179,105,163)" stroke-width="1" opacity="0.9803921568627451" d="M 67.5 481 L 68 484.5 L 67 484.5 L 67.5 481 Z " /><path fill="rgb(179,105,163)" stroke="rgb(179,105,163)" stroke-width="1" opacity="0.9803921568627451" d="M 912.5 481 L 911.5 483 L 912.5 481 Z " /><path fill="rgb(179,105,163)" stroke="rgb(179,105,163)" stroke-width="1" opacity="0.9803921568627451" d="M 139.5 482 L 140 485.5 L 137.5 495 L 137 491.5 L 139.5 482 Z " /><path fill="rgb(179,105,163)" stroke="rgb(179,105,163)" stroke-width="1" opacity="0.9803921568627451" d="M 443.5 482 L 444 484.5 L 443 484.5 L 443.5 482 Z " /><path fill="rgb(179,105,163)" stroke="rgb(179,105,163)" stroke-width="1" opacity="0.9803921568627451" d="M 671.5 482 L 670.5 484 L 671.5 482 Z " /><path fill="rgb(179,105,163)" stroke="rgb(179,105,163)" stroke-width="1" opacity="0.9803921568627451" d="M 699.5 482 L 700 488.5 L 699 488.5 L 699.5 482 Z " /><path fill="rgb(179,105,163)" stroke="rgb(179,105,163)" stroke-width="1" opacity="0.9803921568627451" d="M 936.5 482 L 935.5 484 L 936.5 482 Z " /><path fill="rgb(179,105,163)" stroke="rgb(179,105,163)" stroke-width="1" opacity="0.9803921568627451" d="M 961.5 482 L 960.5 484 L 961.5 482 Z " /><path fill="rgb(179,105,163)" stroke="rgb(179,105,163)" stroke-width="1" opacity="0.9803921568627451" d="M 465.5 484 L 466 487.5 L 465 487.5 L 465.5 484 Z " /><path fill="rgb(179,105,163)" stroke="rgb(179,105,163)" stroke-width="1" opacity="0.9803921568627451" d="M 762.5 485 L 763 487.5 L 762 487.5 L 762.5 485 Z " /><path fill="rgb(179,105,163)" stroke="rgb(179,105,163)" stroke-width="1" opacity="0.9803921568627451" d="M 66.5 486 L 67 488.5 L 66 488.5 L 66.5 486 Z " /><path fill="rgb(179,105,163)" stroke="rgb(179,105,163)" stroke-width="1" opacity="0.9803921568627451" d="M 442.5 486 L 443 489.5 L 442 489.5 L 442.5 486 Z " /><path fill="rgb(179,105,163)" stroke="rgb(179,105,163)" stroke-width="1" opacity="0.9803921568627451" d="M 909.5 486 L 908.5 488 L 909.5 486 Z " /><path fill="rgb(179,105,163)" stroke="rgb(179,105,163)" stroke-width="1" opacity="0.9803921568627451" d="M 972.5 486 L 972 487.5 L 970.5 490 L 971 488.5 L 972.5 486 Z " /><path fill="rgb(179,105,163)" stroke="rgb(179,105,163)" stroke-width="1" opacity="0.9803921568627451" d="M 723.5 487 L 724 492.5 L 723 492.5 L 723.5 487 Z " /><path fill="rgb(179,105,163)" stroke="rgb(179,105,163)" stroke-width="1" opacity="0.9803921568627451" d="M 933.5 487 L 932.5 489 L 933.5 487 Z " /><path fill="rgb(179,105,163)" stroke="rgb(179,105,163)" stroke-width="1" opacity="0.9803921568627451" d="M 293.5 489 L 294 492.5 L 291.5 501 L 291 497.5 L 293.5 489 Z " /><path fill="rgb(179,105,163)" stroke="rgb(179,105,163)" stroke-width="1" opacity="0.9803921568627451" d="M 464.5 489 L 465 491.5 L 464 491.5 L 464.5 489 Z " /><path fill="rgb(179,105,163)" stroke="rgb(179,105,163)" stroke-width="1" opacity="0.9803921568627451" d="M 957.5 489 L 956.5 491 L 957.5 489 Z " /><path fill="rgb(179,105,163)" stroke="rgb(179,105,163)" stroke-width="1" opacity="0.9803921568627451" d="M 65.5 490 L 66 493.5 L 65 493.5 L 65.5 490 Z " /><path fill="rgb(179,105,163)" stroke="rgb(179,105,163)" stroke-width="1" opacity="0.9803921568627451" d="M 825.5 490 L 822.5 494 L 825.5 490 Z " /><path fill="rgb(179,105,163)" stroke="rgb(179,105,163)" stroke-width="1" opacity="0.9803921568627451" d="M 160.5 491 L 161 494.5 L 159.5 498 L 159 495.5 L 160.5 491 Z " /><path fill="rgb(179,105,163)" stroke="rgb(179,105,163)" stroke-width="1" opacity="0.9803921568627451" d="M 441.5 491 L 442 494.5 L 440.5 499 L 440 495.5 L 441.5 491 Z " /><path fill="rgb(179,105,163)" stroke="rgb(179,105,163)" stroke-width="1" opacity="0.9803921568627451" d="M 627.5 491 L 625.5 494 L 627.5 491 Z " /><path fill="rgb(179,105,163)" stroke="rgb(179,105,163)" stroke-width="1" opacity="0.9803921568627451" d="M 666.5 491 L 665.5 493 L 666.5 491 Z " /><path fill="rgb(179,105,163)" stroke="rgb(179,105,163)" stroke-width="1" opacity="0.9803921568627451" d="M 865.5 491 L 866 493.5 L 865 493.5 L 865.5 491 Z " /><path fill="rgb(179,105,163)" stroke="rgb(179,105,163)" stroke-width="1" opacity="0.9803921568627451" d="M 906.5 491 L 905.5 493 L 906.5 491 Z " /><path fill="rgb(179,105,163)" stroke="rgb(179,105,163)" stroke-width="1" opacity="0.9803921568627451" d="M 969.5 491 L 969 492.5 L 966.5 497 L 967 495.5 L 969.5 491 Z " /><path fill="rgb(179,105,163)" stroke="rgb(179,105,163)" stroke-width="1" opacity="0.9803921568627451" d="M 930.5 492 L 929.5 494 L 930.5 492 Z " /><path fill="rgb(179,105,163)" stroke="rgb(179,105,163)" stroke-width="1" opacity="0.9803921568627451" d="M 580.5 494 L 581 496 L 590 496.5 L 581.5 497 L 580.5 494 Z " /><path fill="rgb(179,105,163)" stroke="rgb(179,105,163)" stroke-width="1" opacity="0.9803921568627451" d="M 901.5 494 L 904 494.5 L 901.5 495 L 901.5 494 Z " /><path fill="rgb(179,105,163)" stroke="rgb(179,105,163)" stroke-width="1" opacity="0.9803921568627451" d="M 954.5 494 L 953.5 496 L 954.5 494 Z " /><path fill="rgb(179,105,163)" stroke="rgb(179,105,163)" stroke-width="1" opacity="0.9803921568627451" d="M 64.5 495 L 65 498.5 L 63.5 503 L 63 499.5 L 64.5 495 Z " /><path fill="rgb(179,105,163)" stroke="rgb(179,105,163)" stroke-width="1" opacity="0.9803921568627451" d="M 86.5 496 L 87 499.5 L 85.5 504 L 85 500.5 L 86.5 496 Z " /><path fill="rgb(179,105,163)" stroke="rgb(179,105,163)" stroke-width="1" opacity="0.9803921568627451" d="M 136.5 496 L 137 499.5 L 136 499.5 L 136.5 496 Z " /><path fill="rgb(179,105,163)" stroke="rgb(179,105,163)" stroke-width="1" opacity="0.9803921568627451" d="M 177.5 496 L 178 499.5 L 176.5 504 L 176 500.5 L 177.5 496 Z " /><path fill="rgb(179,105,163)" stroke="rgb(179,105,163)" stroke-width="1" opacity="0.9803921568627451" d="M 700.5 496 L 701 502.5 L 700 502.5 L 700.5 496 Z " /><path fill="rgb(179,105,163)" stroke="rgb(179,105,163)" stroke-width="1" opacity="0.9803921568627451" d="M 724.5 497 L 725 501.5 L 724 501.5 L 724.5 497 Z " /><path fill="rgb(179,105,163)" stroke="rgb(179,105,163)" stroke-width="1" opacity="0.9803921568627451" d="M 927.5 497 L 926.5 499 L 927.5 497 Z " /><path fill="rgb(179,105,163)" stroke="rgb(179,105,163)" stroke-width="1" opacity="0.9803921568627451" d="M 965.5 498 L 965 499.5 L 962.5 504 L 963 502.5 L 965.5 498 Z " /><path fill="rgb(179,105,163)" stroke="rgb(179,105,163)" stroke-width="1" opacity="0.9803921568627451" d="M 158.5 499 L 159 502.5 L 156 509.5 L 151 536.5 L 146 553.5 L 137 566.5 L 149 587.5 L 133.5 603 L 130 603 L 117 577 L 70.5 577 L 59.5 573 L 56 569.5 L 53 563.5 L 52 551.5 L 62 510.5 L 62.5 504 L 64.5 508 L 82.5 508 L 84 506.5 L 84.5 505 L 85 507.5 L 83 510.5 L 83 514.5 L 77 536.5 L 76 547.5 L 78.5 551 L 82.5 553 L 113.5 553 Q 120.3 551.8 124 547.5 L 128 539.5 L 134.5 506 L 135 508 L 155.5 508 L 157 506.5 L 158.5 499 Z M 138 573 Q 136 576 135 574 L 123 575 L 120 579 L 131 602 L 133 602 L 147 588 L 138 573 Z " /><path fill="rgb(179,105,163)" stroke="rgb(179,105,163)" stroke-width="1" opacity="0.9803921568627451" d="M 846.5 499 L 845.5 501 L 846.5 499 Z " /><path fill="rgb(179,105,163)" stroke="rgb(179,105,163)" stroke-width="1" opacity="0.9803921568627451" d="M 951.5 499 L 951 500.5 L 949.5 503 L 950 501.5 L 951.5 499 Z " /><path fill="rgb(179,105,163)" stroke="rgb(179,105,163)" stroke-width="1" opacity="0.9803921568627451" d="M 439.5 500 L 440 503.5 L 439 503.5 L 439.5 500 Z " /><path fill="rgb(179,105,163)" stroke="rgb(179,105,163)" stroke-width="1" opacity="0.9803921568627451" d="M 661.5 500 L 661 501.5 L 659.5 504 L 660 502.5 L 661.5 500 Z " /><path fill="rgb(179,105,163)" stroke="rgb(179,105,163)" stroke-width="1" opacity="0.9803921568627451" d="M 135.5 501 L 136 503.5 L 135 503.5 L 135.5 501 Z " /><path fill="rgb(179,105,163)" stroke="rgb(179,105,163)" stroke-width="1" opacity="0.9803921568627451" d="M 290.5 502 L 291 505.5 Q 288.8 506.8 291.5 508 L 311.5 508 L 312 506.5 L 313 506.5 L 297 576 L 274.5 576 L 274 572.5 L 290.5 502 Z " /><path fill="rgb(179,105,163)" stroke="rgb(179,105,163)" stroke-width="1" opacity="0.9803921568627451" d="M 647.5 502 L 646.5 504 L 647.5 502 Z " /><path fill="rgb(179,105,163)" stroke="rgb(179,105,163)" stroke-width="1" opacity="0.9803921568627451" d="M 844.5 502 L 842.5 505 L 844.5 502 Z " /><path fill="rgb(179,105,163)" stroke="rgb(179,105,163)" stroke-width="1" opacity="0.9803921568627451" d="M 924.5 502 L 923.5 504 L 924.5 502 Z " /><path fill="rgb(179,105,163)" stroke="rgb(179,105,163)" stroke-width="1" opacity="0.9803921568627451" d="M 961.5 505 L 960.5 507 L 961.5 505 Z " /><path fill="rgb(179,105,163)" stroke="rgb(179,105,163)" stroke-width="1" opacity="0.9803921568627451" d="M 644.5 506 L 641.5 510 L 644.5 506 Z " /><path fill="rgb(179,105,163)" stroke="rgb(179,105,163)" stroke-width="1" opacity="0.9803921568627451" d="M 725.5 506 L 726 516.5 L 725 516.5 L 725.5 506 Z " /><path fill="rgb(179,105,163)" stroke="rgb(179,105,163)" stroke-width="1" opacity="0.9803921568627451" d="M 657.5 507 L 658 509.5 L 656 510.5 L 657.5 507 Z " /><path fill="rgb(179,105,163)" stroke="rgb(179,105,163)" stroke-width="1" opacity="0.9803921568627451" d="M 681.5 507 L 680.5 509 L 681.5 507 Z " /><path fill="rgb(179,105,163)" stroke="rgb(179,105,163)" stroke-width="1" opacity="0.9803921568627451" d="M 701.5 508 L 702 513.5 L 701 513.5 L 701.5 508 Z " /><path fill="rgb(179,105,163)" stroke="rgb(179,105,163)" stroke-width="1" opacity="0.9803921568627451" d="M 639.5 510 L 636.5 514 L 639.5 510 Z " /><path fill="rgb(179,105,163)" stroke="rgb(179,105,163)" stroke-width="1" opacity="0.9803921568627451" d="M 862.5 510 L 906 510.5 L 862.5 511 L 862.5 510 Z " /><path fill="rgb(179,105,163)" stroke="rgb(179,105,163)" stroke-width="1" opacity="0.9803921568627451" d="M 757 511 L 835 511.5 L 826.5 517 L 826.5 516 L 830 514.5 L 757.5 514 L 756 514.5 L 757 511 Z M 760 512 L 760 513 L 764 513 L 760 512 Z " /><path fill="rgb(179,105,163)" stroke="rgb(179,105,163)" stroke-width="1" opacity="0.9803921568627451" d="M 959.5 511 L 961 514.5 L 960 514.5 L 959.5 511 Z " /><path fill="rgb(179,105,163)" stroke="rgb(179,105,163)" stroke-width="1" opacity="0.9803921568627451" d="M 555.5 512 L 556 514.5 L 555 514.5 L 555.5 512 Z " /><path fill="rgb(179,105,163)" stroke="rgb(179,105,163)" stroke-width="1" opacity="0.9803921568627451" d="M 678.5 512 L 678 513.5 L 673.5 522 L 674 520.5 L 678.5 512 Z " /><path fill="rgb(179,105,163)" stroke="rgb(179,105,163)" stroke-width="1" opacity="0.9803921568627451" d="M 862.5 512 L 920.5 512 L 921 513.5 L 921.5 515 Q 920 511.5 918.5 514 L 899.5 514 L 897.5 513 L 896.5 514 L 862.5 514 L 861.5 515 L 861 513.5 L 862.5 512 Z " /><path fill="rgb(179,105,163)" stroke="rgb(179,105,163)" stroke-width="1" opacity="0.9803921568627451" d="M 634.5 514 L 632.5 517 L 630.5 518 L 631.5 516 L 634.5 514 Z " /><path fill="rgb(179,105,163)" stroke="rgb(179,105,163)" stroke-width="1" opacity="0.9803921568627451" d="M 654.5 514 L 654 515.5 L 652.5 518 L 653 516.5 L 654.5 514 Z " /><path fill="rgb(179,105,163)" stroke="rgb(179,105,163)" stroke-width="1" opacity="0.9803921568627451" d="M 554.5 516 L 555 518.5 L 554 518.5 L 554.5 516 Z " /><path fill="rgb(179,105,163)" stroke="rgb(179,105,163)" stroke-width="1" opacity="0.9803921568627451" d="M 755.5 516 L 756 518.5 L 755 518.5 L 755.5 516 Z " /><path fill="rgb(179,105,163)" stroke="rgb(179,105,163)" stroke-width="1" opacity="0.9803921568627451" d="M 860.5 516 L 861 519.5 L 860 519.5 L 860.5 516 Z " /><path fill="rgb(179,105,163)" stroke="rgb(179,105,163)" stroke-width="1" opacity="0.9803921568627451" d="M 823.5 517 L 825 517.5 L 823 518 L 822.5 521 L 822 518.5 L 823.5 517 Z " /><path fill="rgb(179,105,163)" stroke="rgb(179,105,163)" stroke-width="1" opacity="0.9803921568627451" d="M 726.5 518 L 727 524.5 L 726 524.5 L 726.5 518 Z " /><path fill="rgb(179,105,163)" stroke="rgb(179,105,163)" stroke-width="1" opacity="0.9803921568627451" d="M 962.5 518 L 966 525.5 L 965 525.5 L 962.5 518 Z " /><path fill="rgb(179,105,163)" stroke="rgb(179,105,163)" stroke-width="1" opacity="0.9803921568627451" d="M 623.5 520 L 625 520.5 L 620.5 522 L 620.5 521 L 623.5 520 Z " /><path fill="rgb(179,105,163)" stroke="rgb(179,105,163)" stroke-width="1" opacity="0.9803921568627451" d="M 702.5 520 L 703 530 L 670.5 530 L 670 527.5 L 671 527.5 L 671.5 529 L 702 529 L 702.5 520 Z " /><path fill="rgb(179,105,163)" stroke="rgb(179,105,163)" stroke-width="1" opacity="0.9803921568627451" d="M 754.5 520 L 755 522.5 L 754 522.5 L 754.5 520 Z " /><path fill="rgb(179,105,163)" stroke="rgb(179,105,163)" stroke-width="1" opacity="0.9803921568627451" d="M 950.5 520 L 952 523.5 L 951 523.5 L 950.5 520 Z " /><path fill="rgb(179,105,163)" stroke="rgb(179,105,163)" stroke-width="1" opacity="0.9803921568627451" d="M 650.5 521 L 650 522.5 L 647.5 527 L 648 525.5 L 650.5 521 Z " /><path fill="rgb(179,105,163)" stroke="rgb(179,105,163)" stroke-width="1" opacity="0.9803921568627451" d="M 859.5 521 L 860 523.5 L 859 523.5 L 859.5 521 Z " /><path fill="rgb(179,105,163)" stroke="rgb(179,105,163)" stroke-width="1" opacity="0.9803921568627451" d="M 615.5 522 L 619 522.5 L 615.5 523 L 615.5 522 Z " /><path fill="rgb(179,105,163)" stroke="rgb(179,105,163)" stroke-width="1" opacity="0.9803921568627451" d="M 778.5 522 L 798.5 522 L 800 523.5 L 798.5 523 L 778.5 523 L 778 525.5 L 777 525.5 L 778.5 522 Z " /><path fill="rgb(179,105,163)" stroke="rgb(179,105,163)" stroke-width="1" opacity="0.9803921568627451" d="M 823.5 522 L 824 525.5 L 823 525.5 L 823.5 522 Z " /><path fill="rgb(179,105,163)" stroke="rgb(179,105,163)" stroke-width="1" opacity="0.9803921568627451" d="M 574 523 L 576 523.5 L 574 524.5 L 574 523 Z " /><path fill="rgb(179,105,163)" stroke="rgb(179,105,163)" stroke-width="1" opacity="0.9803921568627451" d="M 882.5 523 L 882 524.5 L 881.5 526 L 881 524.5 L 882.5 523 Z " /><path fill="rgb(179,105,163)" stroke="rgb(179,105,163)" stroke-width="1" opacity="0.9803921568627451" d="M 903.5 523 L 904.5 525 L 903.5 523 Z " /><path fill="rgb(179,105,163)" stroke="rgb(179,105,163)" stroke-width="1" opacity="0.9803921568627451" d="M 753.5 524 L 754 526.5 L 753 526.5 L 753.5 524 Z " /><path fill="rgb(179,105,163)" stroke="rgb(179,105,163)" stroke-width="1" opacity="0.9803921568627451" d="M 800.5 525 L 801 528.5 L 800 528.5 L 800.5 525 Z " /><path fill="rgb(179,105,163)" stroke="rgb(179,105,163)" stroke-width="1" opacity="0.9803921568627451" d="M 858.5 525 L 859 528.5 L 858 528.5 L 858.5 525 Z " /><path fill="rgb(179,105,163)" stroke="rgb(179,105,163)" stroke-width="1" opacity="0.9803921568627451" d="M 573.5 526 L 574 528.5 L 573 528.5 L 573.5 526 Z " /><path fill="rgb(179,105,163)" stroke="rgb(179,105,163)" stroke-width="1" opacity="0.9803921568627451" d="M 727.5 527 L 728 533.5 L 727 533.5 L 727.5 527 Z " /><path fill="rgb(179,105,163)" stroke="rgb(179,105,163)" stroke-width="1" opacity="0.9803921568627451" d="M 824.5 527 L 825 529.5 L 824 529.5 L 824.5 527 Z " /><path fill="rgb(179,105,163)" stroke="rgb(179,105,163)" stroke-width="1" opacity="0.9803921568627451" d="M 966.5 527 L 971 536.5 L 970 536.5 L 966 528.5 L 966.5 527 Z " /><path fill="rgb(179,105,163)" stroke="rgb(179,105,163)" stroke-width="1" opacity="0.9803921568627451" d="M 752.5 528 L 753 530.5 L 752 530.5 L 752.5 528 Z " /><path fill="rgb(179,105,163)" stroke="rgb(179,105,163)" stroke-width="1" opacity="0.9803921568627451" d="M 776.5 528 L 777 530.5 L 776 530.5 L 776.5 528 Z " /><path fill="rgb(179,105,163)" stroke="rgb(179,105,163)" stroke-width="1" opacity="0.9803921568627451" d="M 551.5 530 L 552 532.5 L 551 532.5 L 551.5 530 Z " /><path fill="rgb(179,105,163)" stroke="rgb(179,105,163)" stroke-width="1" opacity="0.9803921568627451" d="M 857.5 530 L 858 533.5 L 857 533.5 L 857.5 530 Z " /><path fill="rgb(179,105,163)" stroke="rgb(179,105,163)" stroke-width="1" opacity="0.9803921568627451" d="M 572.5 531 L 573 533.5 L 572 533.5 L 572.5 531 Z " /><path fill="rgb(179,105,163)" stroke="rgb(179,105,163)" stroke-width="1" opacity="0.9803921568627451" d="M 801.5 531 L 802 533.5 L 801 533.5 L 801.5 531 Z " /><path fill="rgb(179,105,163)" stroke="rgb(179,105,163)" stroke-width="1" opacity="0.9803921568627451" d="M 644.5 532 L 644 533.5 L 641.5 538 L 642 536.5 L 644.5 532 Z " /><path fill="rgb(179,105,163)" stroke="rgb(179,105,163)" stroke-width="1" opacity="0.9803921568627451" d="M 775.5 532 L 776 535.5 L 775 535.5 L 775.5 532 Z " /><path fill="rgb(179,105,163)" stroke="rgb(179,105,163)" stroke-width="1" opacity="0.9803921568627451" d="M 825.5 532 L 826 534.5 L 825 534.5 L 825.5 532 Z " /><path fill="rgb(179,105,163)" stroke="rgb(179,105,163)" stroke-width="1" opacity="0.9803921568627451" d="M 879.5 533 L 880 535.5 L 879 535.5 L 879.5 533 Z " /><path fill="rgb(179,105,163)" stroke="rgb(179,105,163)" stroke-width="1" opacity="0.9803921568627451" d="M 956.5 533 L 959 538.5 L 958 538.5 L 956.5 533 Z " /><path fill="rgb(179,105,163)" stroke="rgb(179,105,163)" stroke-width="1" opacity="0.9803921568627451" d="M 571.5 535 L 572 537.5 L 571 537.5 L 571.5 535 Z " /><path fill="rgb(179,105,163)" stroke="rgb(179,105,163)" stroke-width="1" opacity="0.9803921568627451" d="M 728.5 535 L 729 541.5 L 728 541.5 L 728.5 535 Z " /><path fill="rgb(179,105,163)" stroke="rgb(179,105,163)" stroke-width="1" opacity="0.9803921568627451" d="M 856.5 535 L 857 537.5 L 856 537.5 L 856.5 535 Z " /><path fill="rgb(179,105,163)" stroke="rgb(179,105,163)" stroke-width="1" opacity="0.9803921568627451" d="M 802.5 536 L 803 539.5 L 802 539.5 L 802.5 536 Z " /><path fill="rgb(179,105,163)" stroke="rgb(179,105,163)" stroke-width="1" opacity="0.9803921568627451" d="M 774.5 537 L 775 539.5 L 774 539.5 L 774.5 537 Z " /><path fill="rgb(179,105,163)" stroke="rgb(179,105,163)" stroke-width="1" opacity="0.9803921568627451" d="M 971.5 538 L 975 545.5 L 974 545.5 L 971.5 538 Z " /><path fill="rgb(179,105,163)" stroke="rgb(179,105,163)" stroke-width="1" opacity="0.9803921568627451" d="M 749.5 539 L 750 541.5 L 749 541.5 L 749.5 539 Z " /><path fill="rgb(179,105,163)" stroke="rgb(179,105,163)" stroke-width="1" opacity="0.9803921568627451" d="M 570.5 540 L 571 542.5 L 570 542.5 L 570.5 540 Z " /><path fill="rgb(179,105,163)" stroke="rgb(179,105,163)" stroke-width="1" opacity="0.9803921568627451" d="M 855.5 540 L 856 542.5 L 855 542.5 L 855.5 540 Z " /><path fill="rgb(179,105,163)" stroke="rgb(179,105,163)" stroke-width="1" opacity="0.9803921568627451" d="M 773.5 542 L 774 544.5 L 773 544.5 L 773.5 542 Z " /><path fill="rgb(179,105,163)" stroke="rgb(179,105,163)" stroke-width="1" opacity="0.9803921568627451" d="M 803.5 542 L 804 544.5 L 803 544.5 L 803.5 542 Z " /><path fill="rgb(179,105,163)" stroke="rgb(179,105,163)" stroke-width="1" opacity="0.9803921568627451" d="M 827.5 542 L 828 545.5 L 827 545.5 L 827.5 542 Z " /><path fill="rgb(179,105,163)" stroke="rgb(179,105,163)" stroke-width="1" opacity="0.9803921568627451" d="M 548.5 543 L 549 545.5 L 548 545.5 L 548.5 543 Z " /><path fill="rgb(179,105,163)" stroke="rgb(179,105,163)" stroke-width="1" opacity="0.9803921568627451" d="M 748.5 543 L 749 545.5 L 748 545.5 L 748.5 543 Z " /><path fill="rgb(179,105,163)" stroke="rgb(179,105,163)" stroke-width="1" opacity="0.9803921568627451" d="M 569.5 544 L 570 546.5 L 569 546.5 L 569.5 544 Z " /><path fill="rgb(179,105,163)" stroke="rgb(179,105,163)" stroke-width="1" opacity="0.9803921568627451" d="M 729.5 544 L 730 549.5 L 729 549.5 L 729.5 544 Z " /><path fill="rgb(179,105,163)" stroke="rgb(179,105,163)" stroke-width="1" opacity="0.9803921568627451" d="M 854.5 544 L 855 546.5 L 854 546.5 L 854.5 544 Z " /><path fill="rgb(179,105,163)" stroke="rgb(179,105,163)" stroke-width="1" opacity="0.9803921568627451" d="M 962.5 546 L 965 551.5 L 964 551.5 L 962.5 546 Z " /><path fill="rgb(179,105,163)" stroke="rgb(179,105,163)" stroke-width="1" opacity="0.9803921568627451" d="M 636.5 547 L 636 548.5 L 634.5 551 L 635 549.5 L 636.5 547 Z " /><path fill="rgb(179,105,163)" stroke="rgb(179,105,163)" stroke-width="1" opacity="0.9803921568627451" d="M 747.5 547 L 748 549.5 L 747 549.5 L 747.5 547 Z " /><path fill="rgb(179,105,163)" stroke="rgb(179,105,163)" stroke-width="1" opacity="0.9803921568627451" d="M 772.5 547 L 773 549.5 L 772 549.5 L 772.5 547 Z " /><path fill="rgb(179,105,163)" stroke="rgb(179,105,163)" stroke-width="1" opacity="0.9803921568627451" d="M 804.5 547 L 805 549.5 L 804 549.5 L 804.5 547 Z " /><path fill="rgb(179,105,163)" stroke="rgb(179,105,163)" stroke-width="1" opacity="0.9803921568627451" d="M 828.5 548 L 829 550.5 L 828 550.5 L 828.5 548 Z " /><path fill="rgb(179,105,163)" stroke="rgb(179,105,163)" stroke-width="1" opacity="0.9803921568627451" d="M 658.5 551 L 704 551.5 L 658 552 L 656.5 555 L 657 553.5 L 658.5 551 Z " /><path fill="rgb(179,105,163)" stroke="rgb(179,105,163)" stroke-width="1" opacity="0.9803921568627451" d="M 771.5 551 L 772 554.5 L 771 554.5 L 771.5 551 Z " /><path fill="rgb(179,105,163)" stroke="rgb(179,105,163)" stroke-width="1" opacity="0.9803921568627451" d="M 546.5 552 L 547 554.5 L 546 554.5 L 546.5 552 Z " /><path fill="rgb(179,105,163)" stroke="rgb(179,105,163)" stroke-width="1" opacity="0.9803921568627451" d="M 730.5 552 L 731 557.5 L 730 557.5 L 730.5 552 Z " /><path fill="rgb(179,105,163)" stroke="rgb(179,105,163)" stroke-width="1" opacity="0.9803921568627451" d="M 567.5 553 L 568 555.5 L 567 555.5 L 567.5 553 Z " /><path fill="rgb(179,105,163)" stroke="rgb(179,105,163)" stroke-width="1" opacity="0.9803921568627451" d="M 704.5 553 L 705 556.5 L 704 556.5 L 704.5 553 Z " /><path fill="rgb(179,105,163)" stroke="rgb(179,105,163)" stroke-width="1" opacity="0.9803921568627451" d="M 805.5 553 L 806 555.5 L 805 555.5 L 805.5 553 Z " /><path fill="rgb(179,105,163)" stroke="rgb(179,105,163)" stroke-width="1" opacity="0.9803921568627451" d="M 852.5 553 L 853 555.5 L 852 555.5 L 852.5 553 Z " /><path fill="rgb(179,105,163)" stroke="rgb(179,105,163)" stroke-width="1" opacity="0.9803921568627451" d="M 978.5 553 L 982 560.5 L 981 560.5 L 978.5 553 Z " /><path fill="rgb(179,105,163)" stroke="rgb(179,105,163)" stroke-width="1" opacity="0.9803921568627451" d="M 770.5 556 L 771 558.5 L 770 558.5 L 770.5 556 Z " /><path fill="rgb(179,105,163)" stroke="rgb(179,105,163)" stroke-width="1" opacity="0.9803921568627451" d="M 874.5 557 L 875 559.5 L 874 559.5 L 874.5 557 Z " /><path fill="rgb(179,105,163)" stroke="rgb(179,105,163)" stroke-width="1" opacity="0.9803921568627451" d="M 566.5 558 L 567 560.5 L 566 560.5 L 566.5 558 Z " /><path fill="rgb(179,105,163)" stroke="rgb(179,105,163)" stroke-width="1" opacity="0.9803921568627451" d="M 806.5 559 L 807 561.5 L 806 561.5 L 806.5 559 Z " /><path fill="rgb(179,105,163)" stroke="rgb(179,105,163)" stroke-width="1" opacity="0.9803921568627451" d="M 968.5 559 L 971 564.5 L 970 564.5 L 968.5 559 Z " /><path fill="rgb(179,105,163)" stroke="rgb(179,105,163)" stroke-width="1" opacity="0.9803921568627451" d="M 731.5 561 L 732 567.5 L 731 567.5 L 731.5 561 Z " /><path fill="rgb(179,105,163)" stroke="rgb(179,105,163)" stroke-width="1" opacity="0.9803921568627451" d="M 769.5 561 L 770 563.5 L 769 563.5 L 769.5 561 Z " /><path fill="rgb(179,105,163)" stroke="rgb(179,105,163)" stroke-width="1" opacity="0.9803921568627451" d="M 565.5 562 L 566 564.5 L 565 564.5 L 565.5 562 Z " /><path fill="rgb(179,105,163)" stroke="rgb(179,105,163)" stroke-width="1" opacity="0.9803921568627451" d="M 628.5 562 L 628 563.5 L 627.5 565 L 627 563.5 L 628.5 562 Z " /><path fill="rgb(179,105,163)" stroke="rgb(179,105,163)" stroke-width="1" opacity="0.9803921568627451" d="M 705.5 562 L 706 566.5 L 705 566.5 L 705.5 562 Z " /><path fill="rgb(179,105,163)" stroke="rgb(179,105,163)" stroke-width="1" opacity="0.9803921568627451" d="M 743.5 563 L 744 565.5 L 743 565.5 L 743.5 563 Z " /><path fill="rgb(179,105,163)" stroke="rgb(179,105,163)" stroke-width="1" opacity="0.9803921568627451" d="M 807.5 564 L 808 567.5 L 807 567.5 L 807.5 564 Z " /><path fill="rgb(179,105,163)" stroke="rgb(179,105,163)" stroke-width="1" opacity="0.9803921568627451" d="M 983.5 564 L 988 573.5 L 987 573.5 L 983 565.5 L 983.5 564 Z " /><path fill="rgb(179,105,163)" stroke="rgb(179,105,163)" stroke-width="1" opacity="0.9803921568627451" d="M 543.5 566 L 544 568.5 L 543 568.5 L 543.5 566 Z " /><path fill="rgb(179,105,163)" stroke="rgb(179,105,163)" stroke-width="1" opacity="0.9803921568627451" d="M 768.5 566 L 769 568.5 L 768 568.5 L 768.5 566 Z " /><path fill="rgb(179,105,163)" stroke="rgb(179,105,163)" stroke-width="1" opacity="0.9803921568627451" d="M 849.5 566 L 850 568.5 L 849 568.5 L 849.5 566 Z " /><path fill="rgb(179,105,163)" stroke="rgb(179,105,163)" stroke-width="1" opacity="0.9803921568627451" d="M 872.5 566 L 873 568.5 L 872 568.5 L 872.5 566 Z " /><path fill="rgb(179,105,163)" stroke="rgb(179,105,163)" stroke-width="1" opacity="0.9803921568627451" d="M 564.5 567 L 565 569.5 L 564 569.5 L 564.5 567 Z " /><path fill="rgb(179,105,163)" stroke="rgb(179,105,163)" stroke-width="1" opacity="0.9803921568627451" d="M 649.5 568 L 649 569.5 L 647.5 572 L 648 570.5 L 649.5 568 Z " /><path fill="rgb(179,105,163)" stroke="rgb(179,105,163)" stroke-width="1" opacity="0.9803921568627451" d="M 732.5 570 L 733 573.5 L 731.5 575 L 707.5 575 L 706.5 573 L 707.5 574 L 732 574 L 732.5 570 Z " /><path fill="rgb(179,105,163)" stroke="rgb(179,105,163)" stroke-width="1" opacity="0.9803921568627451" d="M 767.5 571 L 768 573.5 L 767 573.5 L 767.5 571 Z " /><path fill="rgb(179,105,163)" stroke="rgb(179,105,163)" stroke-width="1" opacity="0.9803921568627451" d="M 808.5 571 L 809 573.5 L 808 573.5 L 808.5 571 Z " /><path fill="rgb(179,105,163)" stroke="rgb(179,105,163)" stroke-width="1" opacity="0.9803921568627451" d="M 848.5 571 L 849 573.5 L 848 573.5 L 848.5 571 Z " /><path fill="rgb(179,105,163)" stroke="rgb(179,105,163)" stroke-width="1" opacity="0.9803921568627451" d="M 542.5 572 L 543 575 L 561.5 575 L 562.5 574 L 561.5 576 L 543.5 576 L 542 574.5 L 542.5 572 Z " /><path fill="rgb(179,105,163)" stroke="rgb(179,105,163)" stroke-width="1" opacity="0.9803921568627451" d="M 741.5 572 L 742 574 L 756 574.5 L 742.5 575 L 741.5 572 Z " /><path fill="rgb(179,105,163)" stroke="rgb(179,105,163)" stroke-width="1" opacity="0.9803921568627451" d="M 646.5 573 L 645.5 575 L 642 574.5 L 646.5 573 Z " /><path fill="rgb(179,105,163)" stroke="rgb(179,105,163)" stroke-width="1" opacity="0.9803921568627451" d="M 976.5 576 L 980 583.5 L 979 583.5 L 976.5 576 Z " /><path fill="rgb(179,105,163)" stroke="rgb(179,105,163)" stroke-width="1" opacity="0.9803921568627451" d="M 989.5 577 L 994 586.5 L 993 586.5 L 989 578.5 L 989.5 577 Z " /><path fill="rgb(179,105,163)" stroke="rgb(179,105,163)" stroke-width="1" opacity="0.9803921568627451" d="M 996.5 592 L 999 597.5 L 998 597.5 L 996.5 592 Z " /><path fill="rgb(179,105,163)" stroke="rgb(179,105,163)" stroke-width="1" opacity="0.9803921568627451" d="M 888.5 599 L 987 599.5 L 888.5 600 L 888.5 599 Z " /><path fill="rgb(179,105,163)" stroke="rgb(179,105,163)" stroke-width="1" opacity="0.9803921568627451" d="M 999.5 599 L 1000 603.5 L 999 603.5 L 999.5 599 Z " /><path fill="rgb(179,105,163)" stroke="rgb(179,105,163)" stroke-width="1" opacity="0.9803921568627451" d="M 997.5 607 L 995.5 610 L 992.5 611 L 992.5 610 L 997.5 607 Z " /></svg>